<svg  xmlns="http://www.w3.org/2000/svg" width="1200" height="1200"><defs><clipPath id="clip-path-dot-color"><rect x="5" y="295" width="29" height="29" transform="rotate(0,19.5,309.5)"></rect><rect x="5" y="440" width="29" height="29" transform="rotate(0,19.5,454.5)"></rect><rect x="5" y="498" width="29" height="29" transform="rotate(0,19.5,512.5)"></rect><rect x="5" y="527" width="29" height="29" transform="rotate(0,19.5,541.5)"></rect><rect x="5" y="556" width="29" height="29" transform="rotate(0,19.5,570.5)"></rect><rect x="5" y="672" width="29" height="29" transform="rotate(0,19.5,686.5)"></rect><rect x="5" y="730" width="29" height="29" transform="rotate(0,19.5,744.5)"></rect><rect x="5" y="759" width="29" height="29" transform="rotate(0,19.5,773.5)"></rect><rect x="5" y="788" width="29" height="29" transform="rotate(0,19.5,802.5)"></rect><rect x="5" y="817" width="29" height="29" transform="rotate(0,19.5,831.5)"></rect><rect x="5" y="846" width="29" height="29" transform="rotate(0,19.5,860.5)"></rect><rect x="5" y="875" width="29" height="29" transform="rotate(0,19.5,889.5)"></rect><rect x="34" y="237" width="29" height="29" transform="rotate(0,48.5,251.5)"></rect><rect x="34" y="266" width="29" height="29" transform="rotate(0,48.5,280.5)"></rect><rect x="34" y="295" width="29" height="29" transform="rotate(0,48.5,309.5)"></rect><rect x="34" y="353" width="29" height="29" transform="rotate(0,48.5,367.5)"></rect><rect x="34" y="382" width="29" height="29" transform="rotate(0,48.5,396.5)"></rect><rect x="34" y="440" width="29" height="29" transform="rotate(0,48.5,454.5)"></rect><rect x="34" y="527" width="29" height="29" transform="rotate(0,48.5,541.5)"></rect><rect x="34" y="556" width="29" height="29" transform="rotate(0,48.5,570.5)"></rect><rect x="34" y="643" width="29" height="29" transform="rotate(0,48.5,657.5)"></rect><rect x="34" y="701" width="29" height="29" transform="rotate(0,48.5,715.5)"></rect><rect x="34" y="730" width="29" height="29" transform="rotate(0,48.5,744.5)"></rect><rect x="34" y="759" width="29" height="29" transform="rotate(0,48.5,773.5)"></rect><rect x="34" y="904" width="29" height="29" transform="rotate(0,48.5,918.5)"></rect><rect x="63" y="266" width="29" height="29" transform="rotate(0,77.5,280.5)"></rect><rect x="63" y="295" width="29" height="29" transform="rotate(0,77.5,309.5)"></rect><rect x="63" y="353" width="29" height="29" transform="rotate(0,77.5,367.5)"></rect><rect x="63" y="469" width="29" height="29" transform="rotate(0,77.5,483.5)"></rect><rect x="63" y="498" width="29" height="29" transform="rotate(0,77.5,512.5)"></rect><rect x="63" y="527" width="29" height="29" transform="rotate(0,77.5,541.5)"></rect><rect x="63" y="643" width="29" height="29" transform="rotate(0,77.5,657.5)"></rect><rect x="63" y="701" width="29" height="29" transform="rotate(0,77.5,715.5)"></rect><rect x="63" y="759" width="29" height="29" transform="rotate(0,77.5,773.5)"></rect><rect x="63" y="788" width="29" height="29" transform="rotate(0,77.5,802.5)"></rect><rect x="63" y="846" width="29" height="29" transform="rotate(0,77.5,860.5)"></rect><rect x="92" y="266" width="29" height="29" transform="rotate(0,106.5,280.5)"></rect><rect x="92" y="353" width="29" height="29" transform="rotate(0,106.5,367.5)"></rect><rect x="92" y="411" width="29" height="29" transform="rotate(0,106.5,425.5)"></rect><rect x="92" y="440" width="29" height="29" transform="rotate(0,106.5,454.5)"></rect><rect x="92" y="498" width="29" height="29" transform="rotate(0,106.5,512.5)"></rect><rect x="92" y="556" width="29" height="29" transform="rotate(0,106.5,570.5)"></rect><rect x="92" y="585" width="29" height="29" transform="rotate(0,106.5,599.5)"></rect><rect x="92" y="643" width="29" height="29" transform="rotate(0,106.5,657.5)"></rect><rect x="92" y="672" width="29" height="29" transform="rotate(0,106.5,686.5)"></rect><rect x="92" y="817" width="29" height="29" transform="rotate(0,106.5,831.5)"></rect><rect x="92" y="875" width="29" height="29" transform="rotate(0,106.5,889.5)"></rect><rect x="121" y="266" width="29" height="29" transform="rotate(0,135.5,280.5)"></rect><rect x="121" y="382" width="29" height="29" transform="rotate(0,135.5,396.5)"></rect><rect x="121" y="411" width="29" height="29" transform="rotate(0,135.5,425.5)"></rect><rect x="121" y="440" width="29" height="29" transform="rotate(0,135.5,454.5)"></rect><rect x="121" y="469" width="29" height="29" transform="rotate(0,135.5,483.5)"></rect><rect x="121" y="643" width="29" height="29" transform="rotate(0,135.5,657.5)"></rect><rect x="121" y="672" width="29" height="29" transform="rotate(0,135.5,686.5)"></rect><rect x="121" y="730" width="29" height="29" transform="rotate(0,135.5,744.5)"></rect><rect x="121" y="788" width="29" height="29" transform="rotate(0,135.5,802.5)"></rect><rect x="121" y="817" width="29" height="29" transform="rotate(0,135.5,831.5)"></rect><rect x="121" y="875" width="29" height="29" transform="rotate(0,135.5,889.5)"></rect><rect x="150" y="237" width="29" height="29" transform="rotate(0,164.5,251.5)"></rect><rect x="150" y="295" width="29" height="29" transform="rotate(0,164.5,309.5)"></rect><rect x="150" y="382" width="29" height="29" transform="rotate(0,164.5,396.5)"></rect><rect x="150" y="411" width="29" height="29" transform="rotate(0,164.5,425.5)"></rect><rect x="150" y="440" width="29" height="29" transform="rotate(0,164.5,454.5)"></rect><rect x="150" y="469" width="29" height="29" transform="rotate(0,164.5,483.5)"></rect><rect x="150" y="498" width="29" height="29" transform="rotate(0,164.5,512.5)"></rect><rect x="150" y="527" width="29" height="29" transform="rotate(0,164.5,541.5)"></rect><rect x="150" y="556" width="29" height="29" transform="rotate(0,164.5,570.5)"></rect><rect x="150" y="585" width="29" height="29" transform="rotate(0,164.5,599.5)"></rect><rect x="150" y="614" width="29" height="29" transform="rotate(0,164.5,628.5)"></rect><rect x="150" y="643" width="29" height="29" transform="rotate(0,164.5,657.5)"></rect><rect x="150" y="701" width="29" height="29" transform="rotate(0,164.5,715.5)"></rect><rect x="150" y="817" width="29" height="29" transform="rotate(0,164.5,831.5)"></rect><rect x="150" y="875" width="29" height="29" transform="rotate(0,164.5,889.5)"></rect><rect x="150" y="904" width="29" height="29" transform="rotate(0,164.5,918.5)"></rect><rect x="150" y="933" width="29" height="29" transform="rotate(0,164.5,947.5)"></rect><rect x="179" y="237" width="29" height="29" transform="rotate(0,193.5,251.5)"></rect><rect x="179" y="295" width="29" height="29" transform="rotate(0,193.5,309.5)"></rect><rect x="179" y="353" width="29" height="29" transform="rotate(0,193.5,367.5)"></rect><rect x="179" y="411" width="29" height="29" transform="rotate(0,193.5,425.5)"></rect><rect x="179" y="469" width="29" height="29" transform="rotate(0,193.5,483.5)"></rect><rect x="179" y="527" width="29" height="29" transform="rotate(0,193.5,541.5)"></rect><rect x="179" y="585" width="29" height="29" transform="rotate(0,193.5,599.5)"></rect><rect x="179" y="643" width="29" height="29" transform="rotate(0,193.5,657.5)"></rect><rect x="179" y="701" width="29" height="29" transform="rotate(0,193.5,715.5)"></rect><rect x="179" y="759" width="29" height="29" transform="rotate(0,193.5,773.5)"></rect><rect x="179" y="817" width="29" height="29" transform="rotate(0,193.5,831.5)"></rect><rect x="179" y="875" width="29" height="29" transform="rotate(0,193.5,889.5)"></rect><rect x="179" y="933" width="29" height="29" transform="rotate(0,193.5,947.5)"></rect><rect x="208" y="237" width="29" height="29" transform="rotate(0,222.5,251.5)"></rect><rect x="208" y="295" width="29" height="29" transform="rotate(0,222.5,309.5)"></rect><rect x="208" y="382" width="29" height="29" transform="rotate(0,222.5,396.5)"></rect><rect x="208" y="411" width="29" height="29" transform="rotate(0,222.5,425.5)"></rect><rect x="208" y="527" width="29" height="29" transform="rotate(0,222.5,541.5)"></rect><rect x="208" y="556" width="29" height="29" transform="rotate(0,222.5,570.5)"></rect><rect x="208" y="614" width="29" height="29" transform="rotate(0,222.5,628.5)"></rect><rect x="208" y="643" width="29" height="29" transform="rotate(0,222.5,657.5)"></rect><rect x="208" y="701" width="29" height="29" transform="rotate(0,222.5,715.5)"></rect><rect x="208" y="730" width="29" height="29" transform="rotate(0,222.5,744.5)"></rect><rect x="208" y="788" width="29" height="29" transform="rotate(0,222.5,802.5)"></rect><rect x="208" y="817" width="29" height="29" transform="rotate(0,222.5,831.5)"></rect><rect x="208" y="846" width="29" height="29" transform="rotate(0,222.5,860.5)"></rect><rect x="208" y="933" width="29" height="29" transform="rotate(0,222.5,947.5)"></rect><rect x="237" y="121" width="29" height="29" transform="rotate(0,251.5,135.5)"></rect><rect x="237" y="150" width="29" height="29" transform="rotate(0,251.5,164.5)"></rect><rect x="237" y="179" width="29" height="29" transform="rotate(0,251.5,193.5)"></rect><rect x="237" y="208" width="29" height="29" transform="rotate(0,251.5,222.5)"></rect><rect x="237" y="266" width="29" height="29" transform="rotate(0,251.5,280.5)"></rect><rect x="237" y="324" width="29" height="29" transform="rotate(0,251.5,338.5)"></rect><rect x="237" y="353" width="29" height="29" transform="rotate(0,251.5,367.5)"></rect><rect x="237" y="382" width="29" height="29" transform="rotate(0,251.5,396.5)"></rect><rect x="237" y="411" width="29" height="29" transform="rotate(0,251.5,425.5)"></rect><rect x="237" y="701" width="29" height="29" transform="rotate(0,251.5,715.5)"></rect><rect x="237" y="730" width="29" height="29" transform="rotate(0,251.5,744.5)"></rect><rect x="237" y="846" width="29" height="29" transform="rotate(0,251.5,860.5)"></rect><rect x="237" y="991" width="29" height="29" transform="rotate(0,251.5,1005.5)"></rect><rect x="237" y="1020" width="29" height="29" transform="rotate(0,251.5,1034.5)"></rect><rect x="237" y="1136" width="29" height="29" transform="rotate(0,251.5,1150.5)"></rect><rect x="266" y="63" width="29" height="29" transform="rotate(0,280.5,77.5)"></rect><rect x="266" y="92" width="29" height="29" transform="rotate(0,280.5,106.5)"></rect><rect x="266" y="150" width="29" height="29" transform="rotate(0,280.5,164.5)"></rect><rect x="266" y="208" width="29" height="29" transform="rotate(0,280.5,222.5)"></rect><rect x="266" y="237" width="29" height="29" transform="rotate(0,280.5,251.5)"></rect><rect x="266" y="266" width="29" height="29" transform="rotate(0,280.5,280.5)"></rect><rect x="266" y="295" width="29" height="29" transform="rotate(0,280.5,309.5)"></rect><rect x="266" y="324" width="29" height="29" transform="rotate(0,280.5,338.5)"></rect><rect x="266" y="440" width="29" height="29" transform="rotate(0,280.5,454.5)"></rect><rect x="266" y="498" width="29" height="29" transform="rotate(0,280.5,512.5)"></rect><rect x="266" y="585" width="29" height="29" transform="rotate(0,280.5,599.5)"></rect><rect x="266" y="759" width="29" height="29" transform="rotate(0,280.5,773.5)"></rect><rect x="266" y="788" width="29" height="29" transform="rotate(0,280.5,802.5)"></rect><rect x="266" y="817" width="29" height="29" transform="rotate(0,280.5,831.5)"></rect><rect x="266" y="875" width="29" height="29" transform="rotate(0,280.5,889.5)"></rect><rect x="266" y="991" width="29" height="29" transform="rotate(0,280.5,1005.5)"></rect><rect x="266" y="1020" width="29" height="29" transform="rotate(0,280.5,1034.5)"></rect><rect x="266" y="1049" width="29" height="29" transform="rotate(0,280.5,1063.5)"></rect><rect x="266" y="1078" width="29" height="29" transform="rotate(0,280.5,1092.5)"></rect><rect x="266" y="1165" width="29" height="29" transform="rotate(0,280.5,1179.5)"></rect><rect x="295" y="34" width="29" height="29" transform="rotate(0,309.5,48.5)"></rect><rect x="295" y="121" width="29" height="29" transform="rotate(0,309.5,135.5)"></rect><rect x="295" y="150" width="29" height="29" transform="rotate(0,309.5,164.5)"></rect><rect x="295" y="179" width="29" height="29" transform="rotate(0,309.5,193.5)"></rect><rect x="295" y="237" width="29" height="29" transform="rotate(0,309.5,251.5)"></rect><rect x="295" y="266" width="29" height="29" transform="rotate(0,309.5,280.5)"></rect><rect x="295" y="295" width="29" height="29" transform="rotate(0,309.5,309.5)"></rect><rect x="295" y="324" width="29" height="29" transform="rotate(0,309.5,338.5)"></rect><rect x="295" y="382" width="29" height="29" transform="rotate(0,309.5,396.5)"></rect><rect x="295" y="440" width="29" height="29" transform="rotate(0,309.5,454.5)"></rect><rect x="295" y="469" width="29" height="29" transform="rotate(0,309.5,483.5)"></rect><rect x="295" y="498" width="29" height="29" transform="rotate(0,309.5,512.5)"></rect><rect x="295" y="527" width="29" height="29" transform="rotate(0,309.5,541.5)"></rect><rect x="295" y="556" width="29" height="29" transform="rotate(0,309.5,570.5)"></rect><rect x="295" y="643" width="29" height="29" transform="rotate(0,309.5,657.5)"></rect><rect x="295" y="672" width="29" height="29" transform="rotate(0,309.5,686.5)"></rect><rect x="295" y="730" width="29" height="29" transform="rotate(0,309.5,744.5)"></rect><rect x="295" y="759" width="29" height="29" transform="rotate(0,309.5,773.5)"></rect><rect x="295" y="788" width="29" height="29" transform="rotate(0,309.5,802.5)"></rect><rect x="295" y="817" width="29" height="29" transform="rotate(0,309.5,831.5)"></rect><rect x="295" y="846" width="29" height="29" transform="rotate(0,309.5,860.5)"></rect><rect x="295" y="933" width="29" height="29" transform="rotate(0,309.5,947.5)"></rect><rect x="295" y="1165" width="29" height="29" transform="rotate(0,309.5,1179.5)"></rect><rect x="324" y="34" width="29" height="29" transform="rotate(0,338.5,48.5)"></rect><rect x="324" y="266" width="29" height="29" transform="rotate(0,338.5,280.5)"></rect><rect x="324" y="295" width="29" height="29" transform="rotate(0,338.5,309.5)"></rect><rect x="324" y="324" width="29" height="29" transform="rotate(0,338.5,338.5)"></rect><rect x="324" y="353" width="29" height="29" transform="rotate(0,338.5,367.5)"></rect><rect x="324" y="382" width="29" height="29" transform="rotate(0,338.5,396.5)"></rect><rect x="324" y="411" width="29" height="29" transform="rotate(0,338.5,425.5)"></rect><rect x="324" y="469" width="29" height="29" transform="rotate(0,338.5,483.5)"></rect><rect x="324" y="527" width="29" height="29" transform="rotate(0,338.5,541.5)"></rect><rect x="324" y="556" width="29" height="29" transform="rotate(0,338.5,570.5)"></rect><rect x="324" y="730" width="29" height="29" transform="rotate(0,338.5,744.5)"></rect><rect x="324" y="846" width="29" height="29" transform="rotate(0,338.5,860.5)"></rect><rect x="324" y="875" width="29" height="29" transform="rotate(0,338.5,889.5)"></rect><rect x="324" y="904" width="29" height="29" transform="rotate(0,338.5,918.5)"></rect><rect x="324" y="933" width="29" height="29" transform="rotate(0,338.5,947.5)"></rect><rect x="324" y="962" width="29" height="29" transform="rotate(0,338.5,976.5)"></rect><rect x="324" y="991" width="29" height="29" transform="rotate(0,338.5,1005.5)"></rect><rect x="324" y="1020" width="29" height="29" transform="rotate(0,338.5,1034.5)"></rect><rect x="324" y="1078" width="29" height="29" transform="rotate(0,338.5,1092.5)"></rect><rect x="324" y="1136" width="29" height="29" transform="rotate(0,338.5,1150.5)"></rect><rect x="324" y="1165" width="29" height="29" transform="rotate(0,338.5,1179.5)"></rect><rect x="353" y="5" width="29" height="29" transform="rotate(0,367.5,19.5)"></rect><rect x="353" y="34" width="29" height="29" transform="rotate(0,367.5,48.5)"></rect><rect x="353" y="92" width="29" height="29" transform="rotate(0,367.5,106.5)"></rect><rect x="353" y="150" width="29" height="29" transform="rotate(0,367.5,164.5)"></rect><rect x="353" y="179" width="29" height="29" transform="rotate(0,367.5,193.5)"></rect><rect x="353" y="266" width="29" height="29" transform="rotate(0,367.5,280.5)"></rect><rect x="353" y="469" width="29" height="29" transform="rotate(0,367.5,483.5)"></rect><rect x="353" y="556" width="29" height="29" transform="rotate(0,367.5,570.5)"></rect><rect x="353" y="585" width="29" height="29" transform="rotate(0,367.5,599.5)"></rect><rect x="353" y="614" width="29" height="29" transform="rotate(0,367.5,628.5)"></rect><rect x="353" y="701" width="29" height="29" transform="rotate(0,367.5,715.5)"></rect><rect x="353" y="730" width="29" height="29" transform="rotate(0,367.5,744.5)"></rect><rect x="353" y="759" width="29" height="29" transform="rotate(0,367.5,773.5)"></rect><rect x="353" y="788" width="29" height="29" transform="rotate(0,367.5,802.5)"></rect><rect x="353" y="846" width="29" height="29" transform="rotate(0,367.5,860.5)"></rect><rect x="353" y="933" width="29" height="29" transform="rotate(0,367.5,947.5)"></rect><rect x="353" y="962" width="29" height="29" transform="rotate(0,367.5,976.5)"></rect><rect x="353" y="1136" width="29" height="29" transform="rotate(0,367.5,1150.5)"></rect><rect x="353" y="1165" width="29" height="29" transform="rotate(0,367.5,1179.5)"></rect><rect x="382" y="5" width="29" height="29" transform="rotate(0,396.5,19.5)"></rect><rect x="382" y="34" width="29" height="29" transform="rotate(0,396.5,48.5)"></rect><rect x="382" y="92" width="29" height="29" transform="rotate(0,396.5,106.5)"></rect><rect x="382" y="208" width="29" height="29" transform="rotate(0,396.5,222.5)"></rect><rect x="382" y="295" width="29" height="29" transform="rotate(0,396.5,309.5)"></rect><rect x="382" y="353" width="29" height="29" transform="rotate(0,396.5,367.5)"></rect><rect x="382" y="440" width="29" height="29" transform="rotate(0,396.5,454.5)"></rect><rect x="382" y="469" width="29" height="29" transform="rotate(0,396.5,483.5)"></rect><rect x="382" y="498" width="29" height="29" transform="rotate(0,396.5,512.5)"></rect><rect x="382" y="556" width="29" height="29" transform="rotate(0,396.5,570.5)"></rect><rect x="382" y="585" width="29" height="29" transform="rotate(0,396.5,599.5)"></rect><rect x="382" y="643" width="29" height="29" transform="rotate(0,396.5,657.5)"></rect><rect x="382" y="672" width="29" height="29" transform="rotate(0,396.5,686.5)"></rect><rect x="382" y="817" width="29" height="29" transform="rotate(0,396.5,831.5)"></rect><rect x="382" y="846" width="29" height="29" transform="rotate(0,396.5,860.5)"></rect><rect x="382" y="875" width="29" height="29" transform="rotate(0,396.5,889.5)"></rect><rect x="382" y="991" width="29" height="29" transform="rotate(0,396.5,1005.5)"></rect><rect x="382" y="1020" width="29" height="29" transform="rotate(0,396.5,1034.5)"></rect><rect x="382" y="1049" width="29" height="29" transform="rotate(0,396.5,1063.5)"></rect><rect x="382" y="1165" width="29" height="29" transform="rotate(0,396.5,1179.5)"></rect><rect x="411" y="5" width="29" height="29" transform="rotate(0,425.5,19.5)"></rect><rect x="411" y="63" width="29" height="29" transform="rotate(0,425.5,77.5)"></rect><rect x="411" y="150" width="29" height="29" transform="rotate(0,425.5,164.5)"></rect><rect x="411" y="179" width="29" height="29" transform="rotate(0,425.5,193.5)"></rect><rect x="411" y="208" width="29" height="29" transform="rotate(0,425.5,222.5)"></rect><rect x="411" y="266" width="29" height="29" transform="rotate(0,425.5,280.5)"></rect><rect x="411" y="295" width="29" height="29" transform="rotate(0,425.5,309.5)"></rect><rect x="411" y="353" width="29" height="29" transform="rotate(0,425.5,367.5)"></rect><rect x="411" y="382" width="29" height="29" transform="rotate(0,425.5,396.5)"></rect><rect x="411" y="440" width="29" height="29" transform="rotate(0,425.5,454.5)"></rect><rect x="411" y="556" width="29" height="29" transform="rotate(0,425.5,570.5)"></rect><rect x="411" y="585" width="29" height="29" transform="rotate(0,425.5,599.5)"></rect><rect x="411" y="614" width="29" height="29" transform="rotate(0,425.5,628.5)"></rect><rect x="411" y="643" width="29" height="29" transform="rotate(0,425.5,657.5)"></rect><rect x="411" y="701" width="29" height="29" transform="rotate(0,425.5,715.5)"></rect><rect x="411" y="759" width="29" height="29" transform="rotate(0,425.5,773.5)"></rect><rect x="411" y="817" width="29" height="29" transform="rotate(0,425.5,831.5)"></rect><rect x="411" y="846" width="29" height="29" transform="rotate(0,425.5,860.5)"></rect><rect x="411" y="875" width="29" height="29" transform="rotate(0,425.5,889.5)"></rect><rect x="411" y="933" width="29" height="29" transform="rotate(0,425.5,947.5)"></rect><rect x="411" y="962" width="29" height="29" transform="rotate(0,425.5,976.5)"></rect><rect x="411" y="991" width="29" height="29" transform="rotate(0,425.5,1005.5)"></rect><rect x="411" y="1020" width="29" height="29" transform="rotate(0,425.5,1034.5)"></rect><rect x="411" y="1078" width="29" height="29" transform="rotate(0,425.5,1092.5)"></rect><rect x="411" y="1107" width="29" height="29" transform="rotate(0,425.5,1121.5)"></rect><rect x="411" y="1165" width="29" height="29" transform="rotate(0,425.5,1179.5)"></rect><rect x="440" y="5" width="29" height="29" transform="rotate(0,454.5,19.5)"></rect><rect x="440" y="34" width="29" height="29" transform="rotate(0,454.5,48.5)"></rect><rect x="440" y="92" width="29" height="29" transform="rotate(0,454.5,106.5)"></rect><rect x="440" y="121" width="29" height="29" transform="rotate(0,454.5,135.5)"></rect><rect x="440" y="150" width="29" height="29" transform="rotate(0,454.5,164.5)"></rect><rect x="440" y="237" width="29" height="29" transform="rotate(0,454.5,251.5)"></rect><rect x="440" y="266" width="29" height="29" transform="rotate(0,454.5,280.5)"></rect><rect x="440" y="324" width="29" height="29" transform="rotate(0,454.5,338.5)"></rect><rect x="440" y="353" width="29" height="29" transform="rotate(0,454.5,367.5)"></rect><rect x="440" y="440" width="29" height="29" transform="rotate(0,454.5,454.5)"></rect><rect x="440" y="469" width="29" height="29" transform="rotate(0,454.5,483.5)"></rect><rect x="440" y="498" width="29" height="29" transform="rotate(0,454.5,512.5)"></rect><rect x="440" y="585" width="29" height="29" transform="rotate(0,454.5,599.5)"></rect><rect x="440" y="643" width="29" height="29" transform="rotate(0,454.5,657.5)"></rect><rect x="440" y="730" width="29" height="29" transform="rotate(0,454.5,744.5)"></rect><rect x="440" y="846" width="29" height="29" transform="rotate(0,454.5,860.5)"></rect><rect x="440" y="1049" width="29" height="29" transform="rotate(0,454.5,1063.5)"></rect><rect x="440" y="1078" width="29" height="29" transform="rotate(0,454.5,1092.5)"></rect><rect x="440" y="1165" width="29" height="29" transform="rotate(0,454.5,1179.5)"></rect><rect x="469" y="34" width="29" height="29" transform="rotate(0,483.5,48.5)"></rect><rect x="469" y="63" width="29" height="29" transform="rotate(0,483.5,77.5)"></rect><rect x="469" y="92" width="29" height="29" transform="rotate(0,483.5,106.5)"></rect><rect x="469" y="121" width="29" height="29" transform="rotate(0,483.5,135.5)"></rect><rect x="469" y="150" width="29" height="29" transform="rotate(0,483.5,164.5)"></rect><rect x="469" y="179" width="29" height="29" transform="rotate(0,483.5,193.5)"></rect><rect x="469" y="382" width="29" height="29" transform="rotate(0,483.5,396.5)"></rect><rect x="469" y="440" width="29" height="29" transform="rotate(0,483.5,454.5)"></rect><rect x="469" y="469" width="29" height="29" transform="rotate(0,483.5,483.5)"></rect><rect x="469" y="498" width="29" height="29" transform="rotate(0,483.5,512.5)"></rect><rect x="469" y="614" width="29" height="29" transform="rotate(0,483.5,628.5)"></rect><rect x="469" y="759" width="29" height="29" transform="rotate(0,483.5,773.5)"></rect><rect x="469" y="788" width="29" height="29" transform="rotate(0,483.5,802.5)"></rect><rect x="469" y="846" width="29" height="29" transform="rotate(0,483.5,860.5)"></rect><rect x="469" y="904" width="29" height="29" transform="rotate(0,483.5,918.5)"></rect><rect x="469" y="933" width="29" height="29" transform="rotate(0,483.5,947.5)"></rect><rect x="469" y="1020" width="29" height="29" transform="rotate(0,483.5,1034.5)"></rect><rect x="469" y="1078" width="29" height="29" transform="rotate(0,483.5,1092.5)"></rect><rect x="498" y="63" width="29" height="29" transform="rotate(0,512.5,77.5)"></rect><rect x="498" y="92" width="29" height="29" transform="rotate(0,512.5,106.5)"></rect><rect x="498" y="150" width="29" height="29" transform="rotate(0,512.5,164.5)"></rect><rect x="498" y="266" width="29" height="29" transform="rotate(0,512.5,280.5)"></rect><rect x="498" y="353" width="29" height="29" transform="rotate(0,512.5,367.5)"></rect><rect x="498" y="411" width="29" height="29" transform="rotate(0,512.5,425.5)"></rect><rect x="498" y="440" width="29" height="29" transform="rotate(0,512.5,454.5)"></rect><rect x="498" y="498" width="29" height="29" transform="rotate(0,512.5,512.5)"></rect><rect x="498" y="527" width="29" height="29" transform="rotate(0,512.5,541.5)"></rect><rect x="498" y="614" width="29" height="29" transform="rotate(0,512.5,628.5)"></rect><rect x="498" y="672" width="29" height="29" transform="rotate(0,512.5,686.5)"></rect><rect x="498" y="701" width="29" height="29" transform="rotate(0,512.5,715.5)"></rect><rect x="498" y="730" width="29" height="29" transform="rotate(0,512.5,744.5)"></rect><rect x="498" y="759" width="29" height="29" transform="rotate(0,512.5,773.5)"></rect><rect x="498" y="788" width="29" height="29" transform="rotate(0,512.5,802.5)"></rect><rect x="498" y="817" width="29" height="29" transform="rotate(0,512.5,831.5)"></rect><rect x="498" y="875" width="29" height="29" transform="rotate(0,512.5,889.5)"></rect><rect x="498" y="962" width="29" height="29" transform="rotate(0,512.5,976.5)"></rect><rect x="498" y="991" width="29" height="29" transform="rotate(0,512.5,1005.5)"></rect><rect x="498" y="1020" width="29" height="29" transform="rotate(0,512.5,1034.5)"></rect><rect x="498" y="1049" width="29" height="29" transform="rotate(0,512.5,1063.5)"></rect><rect x="498" y="1165" width="29" height="29" transform="rotate(0,512.5,1179.5)"></rect><rect x="527" y="5" width="29" height="29" transform="rotate(0,541.5,19.5)"></rect><rect x="527" y="63" width="29" height="29" transform="rotate(0,541.5,77.5)"></rect><rect x="527" y="121" width="29" height="29" transform="rotate(0,541.5,135.5)"></rect><rect x="527" y="179" width="29" height="29" transform="rotate(0,541.5,193.5)"></rect><rect x="527" y="208" width="29" height="29" transform="rotate(0,541.5,222.5)"></rect><rect x="527" y="237" width="29" height="29" transform="rotate(0,541.5,251.5)"></rect><rect x="527" y="353" width="29" height="29" transform="rotate(0,541.5,367.5)"></rect><rect x="527" y="411" width="29" height="29" transform="rotate(0,541.5,425.5)"></rect><rect x="527" y="469" width="29" height="29" transform="rotate(0,541.5,483.5)"></rect><rect x="527" y="556" width="29" height="29" transform="rotate(0,541.5,570.5)"></rect><rect x="527" y="701" width="29" height="29" transform="rotate(0,541.5,715.5)"></rect><rect x="527" y="730" width="29" height="29" transform="rotate(0,541.5,744.5)"></rect><rect x="527" y="759" width="29" height="29" transform="rotate(0,541.5,773.5)"></rect><rect x="527" y="788" width="29" height="29" transform="rotate(0,541.5,802.5)"></rect><rect x="527" y="846" width="29" height="29" transform="rotate(0,541.5,860.5)"></rect><rect x="527" y="962" width="29" height="29" transform="rotate(0,541.5,976.5)"></rect><rect x="527" y="991" width="29" height="29" transform="rotate(0,541.5,1005.5)"></rect><rect x="527" y="1020" width="29" height="29" transform="rotate(0,541.5,1034.5)"></rect><rect x="527" y="1136" width="29" height="29" transform="rotate(0,541.5,1150.5)"></rect><rect x="527" y="1165" width="29" height="29" transform="rotate(0,541.5,1179.5)"></rect><rect x="556" y="5" width="29" height="29" transform="rotate(0,570.5,19.5)"></rect><rect x="556" y="150" width="29" height="29" transform="rotate(0,570.5,164.5)"></rect><rect x="556" y="208" width="29" height="29" transform="rotate(0,570.5,222.5)"></rect><rect x="556" y="237" width="29" height="29" transform="rotate(0,570.5,251.5)"></rect><rect x="556" y="324" width="29" height="29" transform="rotate(0,570.5,338.5)"></rect><rect x="556" y="353" width="29" height="29" transform="rotate(0,570.5,367.5)"></rect><rect x="556" y="382" width="29" height="29" transform="rotate(0,570.5,396.5)"></rect><rect x="556" y="440" width="29" height="29" transform="rotate(0,570.5,454.5)"></rect><rect x="556" y="469" width="29" height="29" transform="rotate(0,570.5,483.5)"></rect><rect x="556" y="527" width="29" height="29" transform="rotate(0,570.5,541.5)"></rect><rect x="556" y="614" width="29" height="29" transform="rotate(0,570.5,628.5)"></rect><rect x="556" y="643" width="29" height="29" transform="rotate(0,570.5,657.5)"></rect><rect x="556" y="730" width="29" height="29" transform="rotate(0,570.5,744.5)"></rect><rect x="556" y="788" width="29" height="29" transform="rotate(0,570.5,802.5)"></rect><rect x="556" y="817" width="29" height="29" transform="rotate(0,570.5,831.5)"></rect><rect x="556" y="846" width="29" height="29" transform="rotate(0,570.5,860.5)"></rect><rect x="556" y="875" width="29" height="29" transform="rotate(0,570.5,889.5)"></rect><rect x="556" y="933" width="29" height="29" transform="rotate(0,570.5,947.5)"></rect><rect x="556" y="991" width="29" height="29" transform="rotate(0,570.5,1005.5)"></rect><rect x="556" y="1020" width="29" height="29" transform="rotate(0,570.5,1034.5)"></rect><rect x="556" y="1078" width="29" height="29" transform="rotate(0,570.5,1092.5)"></rect><rect x="556" y="1136" width="29" height="29" transform="rotate(0,570.5,1150.5)"></rect><rect x="556" y="1165" width="29" height="29" transform="rotate(0,570.5,1179.5)"></rect><rect x="585" y="5" width="29" height="29" transform="rotate(0,599.5,19.5)"></rect><rect x="585" y="63" width="29" height="29" transform="rotate(0,599.5,77.5)"></rect><rect x="585" y="121" width="29" height="29" transform="rotate(0,599.5,135.5)"></rect><rect x="585" y="179" width="29" height="29" transform="rotate(0,599.5,193.5)"></rect><rect x="585" y="295" width="29" height="29" transform="rotate(0,599.5,309.5)"></rect><rect x="585" y="353" width="29" height="29" transform="rotate(0,599.5,367.5)"></rect><rect x="585" y="440" width="29" height="29" transform="rotate(0,599.5,454.5)"></rect><rect x="585" y="469" width="29" height="29" transform="rotate(0,599.5,483.5)"></rect><rect x="585" y="498" width="29" height="29" transform="rotate(0,599.5,512.5)"></rect><rect x="585" y="556" width="29" height="29" transform="rotate(0,599.5,570.5)"></rect><rect x="585" y="614" width="29" height="29" transform="rotate(0,599.5,628.5)"></rect><rect x="585" y="701" width="29" height="29" transform="rotate(0,599.5,715.5)"></rect><rect x="585" y="730" width="29" height="29" transform="rotate(0,599.5,744.5)"></rect><rect x="585" y="759" width="29" height="29" transform="rotate(0,599.5,773.5)"></rect><rect x="585" y="875" width="29" height="29" transform="rotate(0,599.5,889.5)"></rect><rect x="585" y="933" width="29" height="29" transform="rotate(0,599.5,947.5)"></rect><rect x="585" y="962" width="29" height="29" transform="rotate(0,599.5,976.5)"></rect><rect x="585" y="1078" width="29" height="29" transform="rotate(0,599.5,1092.5)"></rect><rect x="585" y="1136" width="29" height="29" transform="rotate(0,599.5,1150.5)"></rect><rect x="585" y="1165" width="29" height="29" transform="rotate(0,599.5,1179.5)"></rect><rect x="614" y="5" width="29" height="29" transform="rotate(0,628.5,19.5)"></rect><rect x="614" y="34" width="29" height="29" transform="rotate(0,628.5,48.5)"></rect><rect x="614" y="92" width="29" height="29" transform="rotate(0,628.5,106.5)"></rect><rect x="614" y="121" width="29" height="29" transform="rotate(0,628.5,135.5)"></rect><rect x="614" y="208" width="29" height="29" transform="rotate(0,628.5,222.5)"></rect><rect x="614" y="237" width="29" height="29" transform="rotate(0,628.5,251.5)"></rect><rect x="614" y="266" width="29" height="29" transform="rotate(0,628.5,280.5)"></rect><rect x="614" y="295" width="29" height="29" transform="rotate(0,628.5,309.5)"></rect><rect x="614" y="353" width="29" height="29" transform="rotate(0,628.5,367.5)"></rect><rect x="614" y="440" width="29" height="29" transform="rotate(0,628.5,454.5)"></rect><rect x="614" y="527" width="29" height="29" transform="rotate(0,628.5,541.5)"></rect><rect x="614" y="556" width="29" height="29" transform="rotate(0,628.5,570.5)"></rect><rect x="614" y="614" width="29" height="29" transform="rotate(0,628.5,628.5)"></rect><rect x="614" y="643" width="29" height="29" transform="rotate(0,628.5,657.5)"></rect><rect x="614" y="672" width="29" height="29" transform="rotate(0,628.5,686.5)"></rect><rect x="614" y="730" width="29" height="29" transform="rotate(0,628.5,744.5)"></rect><rect x="614" y="788" width="29" height="29" transform="rotate(0,628.5,802.5)"></rect><rect x="614" y="817" width="29" height="29" transform="rotate(0,628.5,831.5)"></rect><rect x="614" y="875" width="29" height="29" transform="rotate(0,628.5,889.5)"></rect><rect x="614" y="991" width="29" height="29" transform="rotate(0,628.5,1005.5)"></rect><rect x="614" y="1020" width="29" height="29" transform="rotate(0,628.5,1034.5)"></rect><rect x="614" y="1049" width="29" height="29" transform="rotate(0,628.5,1063.5)"></rect><rect x="614" y="1078" width="29" height="29" transform="rotate(0,628.5,1092.5)"></rect><rect x="614" y="1107" width="29" height="29" transform="rotate(0,628.5,1121.5)"></rect><rect x="614" y="1165" width="29" height="29" transform="rotate(0,628.5,1179.5)"></rect><rect x="643" y="63" width="29" height="29" transform="rotate(0,657.5,77.5)"></rect><rect x="643" y="92" width="29" height="29" transform="rotate(0,657.5,106.5)"></rect><rect x="643" y="179" width="29" height="29" transform="rotate(0,657.5,193.5)"></rect><rect x="643" y="208" width="29" height="29" transform="rotate(0,657.5,222.5)"></rect><rect x="643" y="237" width="29" height="29" transform="rotate(0,657.5,251.5)"></rect><rect x="643" y="295" width="29" height="29" transform="rotate(0,657.5,309.5)"></rect><rect x="643" y="324" width="29" height="29" transform="rotate(0,657.5,338.5)"></rect><rect x="643" y="353" width="29" height="29" transform="rotate(0,657.5,367.5)"></rect><rect x="643" y="440" width="29" height="29" transform="rotate(0,657.5,454.5)"></rect><rect x="643" y="469" width="29" height="29" transform="rotate(0,657.5,483.5)"></rect><rect x="643" y="498" width="29" height="29" transform="rotate(0,657.5,512.5)"></rect><rect x="643" y="585" width="29" height="29" transform="rotate(0,657.5,599.5)"></rect><rect x="643" y="614" width="29" height="29" transform="rotate(0,657.5,628.5)"></rect><rect x="643" y="643" width="29" height="29" transform="rotate(0,657.5,657.5)"></rect><rect x="643" y="788" width="29" height="29" transform="rotate(0,657.5,802.5)"></rect><rect x="643" y="817" width="29" height="29" transform="rotate(0,657.5,831.5)"></rect><rect x="643" y="875" width="29" height="29" transform="rotate(0,657.5,889.5)"></rect><rect x="643" y="933" width="29" height="29" transform="rotate(0,657.5,947.5)"></rect><rect x="643" y="1078" width="29" height="29" transform="rotate(0,657.5,1092.5)"></rect><rect x="643" y="1165" width="29" height="29" transform="rotate(0,657.5,1179.5)"></rect><rect x="672" y="34" width="29" height="29" transform="rotate(0,686.5,48.5)"></rect><rect x="672" y="121" width="29" height="29" transform="rotate(0,686.5,135.5)"></rect><rect x="672" y="237" width="29" height="29" transform="rotate(0,686.5,251.5)"></rect><rect x="672" y="295" width="29" height="29" transform="rotate(0,686.5,309.5)"></rect><rect x="672" y="469" width="29" height="29" transform="rotate(0,686.5,483.5)"></rect><rect x="672" y="556" width="29" height="29" transform="rotate(0,686.5,570.5)"></rect><rect x="672" y="585" width="29" height="29" transform="rotate(0,686.5,599.5)"></rect><rect x="672" y="643" width="29" height="29" transform="rotate(0,686.5,657.5)"></rect><rect x="672" y="730" width="29" height="29" transform="rotate(0,686.5,744.5)"></rect><rect x="672" y="759" width="29" height="29" transform="rotate(0,686.5,773.5)"></rect><rect x="672" y="788" width="29" height="29" transform="rotate(0,686.5,802.5)"></rect><rect x="672" y="846" width="29" height="29" transform="rotate(0,686.5,860.5)"></rect><rect x="672" y="962" width="29" height="29" transform="rotate(0,686.5,976.5)"></rect><rect x="672" y="991" width="29" height="29" transform="rotate(0,686.5,1005.5)"></rect><rect x="672" y="1020" width="29" height="29" transform="rotate(0,686.5,1034.5)"></rect><rect x="672" y="1078" width="29" height="29" transform="rotate(0,686.5,1092.5)"></rect><rect x="672" y="1136" width="29" height="29" transform="rotate(0,686.5,1150.5)"></rect><rect x="701" y="5" width="29" height="29" transform="rotate(0,715.5,19.5)"></rect><rect x="701" y="92" width="29" height="29" transform="rotate(0,715.5,106.5)"></rect><rect x="701" y="121" width="29" height="29" transform="rotate(0,715.5,135.5)"></rect><rect x="701" y="179" width="29" height="29" transform="rotate(0,715.5,193.5)"></rect><rect x="701" y="266" width="29" height="29" transform="rotate(0,715.5,280.5)"></rect><rect x="701" y="382" width="29" height="29" transform="rotate(0,715.5,396.5)"></rect><rect x="701" y="440" width="29" height="29" transform="rotate(0,715.5,454.5)"></rect><rect x="701" y="585" width="29" height="29" transform="rotate(0,715.5,599.5)"></rect><rect x="701" y="643" width="29" height="29" transform="rotate(0,715.5,657.5)"></rect><rect x="701" y="701" width="29" height="29" transform="rotate(0,715.5,715.5)"></rect><rect x="701" y="759" width="29" height="29" transform="rotate(0,715.5,773.5)"></rect><rect x="701" y="788" width="29" height="29" transform="rotate(0,715.5,802.5)"></rect><rect x="701" y="846" width="29" height="29" transform="rotate(0,715.5,860.5)"></rect><rect x="701" y="904" width="29" height="29" transform="rotate(0,715.5,918.5)"></rect><rect x="701" y="933" width="29" height="29" transform="rotate(0,715.5,947.5)"></rect><rect x="701" y="962" width="29" height="29" transform="rotate(0,715.5,976.5)"></rect><rect x="701" y="1078" width="29" height="29" transform="rotate(0,715.5,1092.5)"></rect><rect x="701" y="1136" width="29" height="29" transform="rotate(0,715.5,1150.5)"></rect><rect x="730" y="63" width="29" height="29" transform="rotate(0,744.5,77.5)"></rect><rect x="730" y="121" width="29" height="29" transform="rotate(0,744.5,135.5)"></rect><rect x="730" y="150" width="29" height="29" transform="rotate(0,744.5,164.5)"></rect><rect x="730" y="208" width="29" height="29" transform="rotate(0,744.5,222.5)"></rect><rect x="730" y="324" width="29" height="29" transform="rotate(0,744.5,338.5)"></rect><rect x="730" y="440" width="29" height="29" transform="rotate(0,744.5,454.5)"></rect><rect x="730" y="527" width="29" height="29" transform="rotate(0,744.5,541.5)"></rect><rect x="730" y="556" width="29" height="29" transform="rotate(0,744.5,570.5)"></rect><rect x="730" y="614" width="29" height="29" transform="rotate(0,744.5,628.5)"></rect><rect x="730" y="701" width="29" height="29" transform="rotate(0,744.5,715.5)"></rect><rect x="730" y="759" width="29" height="29" transform="rotate(0,744.5,773.5)"></rect><rect x="730" y="788" width="29" height="29" transform="rotate(0,744.5,802.5)"></rect><rect x="730" y="846" width="29" height="29" transform="rotate(0,744.5,860.5)"></rect><rect x="730" y="933" width="29" height="29" transform="rotate(0,744.5,947.5)"></rect><rect x="730" y="991" width="29" height="29" transform="rotate(0,744.5,1005.5)"></rect><rect x="730" y="1020" width="29" height="29" transform="rotate(0,744.5,1034.5)"></rect><rect x="730" y="1049" width="29" height="29" transform="rotate(0,744.5,1063.5)"></rect><rect x="730" y="1107" width="29" height="29" transform="rotate(0,744.5,1121.5)"></rect><rect x="730" y="1165" width="29" height="29" transform="rotate(0,744.5,1179.5)"></rect><rect x="759" y="34" width="29" height="29" transform="rotate(0,773.5,48.5)"></rect><rect x="759" y="63" width="29" height="29" transform="rotate(0,773.5,77.5)"></rect><rect x="759" y="179" width="29" height="29" transform="rotate(0,773.5,193.5)"></rect><rect x="759" y="208" width="29" height="29" transform="rotate(0,773.5,222.5)"></rect><rect x="759" y="237" width="29" height="29" transform="rotate(0,773.5,251.5)"></rect><rect x="759" y="295" width="29" height="29" transform="rotate(0,773.5,309.5)"></rect><rect x="759" y="382" width="29" height="29" transform="rotate(0,773.5,396.5)"></rect><rect x="759" y="440" width="29" height="29" transform="rotate(0,773.5,454.5)"></rect><rect x="759" y="469" width="29" height="29" transform="rotate(0,773.5,483.5)"></rect><rect x="759" y="527" width="29" height="29" transform="rotate(0,773.5,541.5)"></rect><rect x="759" y="556" width="29" height="29" transform="rotate(0,773.5,570.5)"></rect><rect x="759" y="585" width="29" height="29" transform="rotate(0,773.5,599.5)"></rect><rect x="759" y="788" width="29" height="29" transform="rotate(0,773.5,802.5)"></rect><rect x="759" y="846" width="29" height="29" transform="rotate(0,773.5,860.5)"></rect><rect x="759" y="875" width="29" height="29" transform="rotate(0,773.5,889.5)"></rect><rect x="759" y="933" width="29" height="29" transform="rotate(0,773.5,947.5)"></rect><rect x="759" y="962" width="29" height="29" transform="rotate(0,773.5,976.5)"></rect><rect x="759" y="991" width="29" height="29" transform="rotate(0,773.5,1005.5)"></rect><rect x="759" y="1020" width="29" height="29" transform="rotate(0,773.5,1034.5)"></rect><rect x="759" y="1165" width="29" height="29" transform="rotate(0,773.5,1179.5)"></rect><rect x="788" y="63" width="29" height="29" transform="rotate(0,802.5,77.5)"></rect><rect x="788" y="92" width="29" height="29" transform="rotate(0,802.5,106.5)"></rect><rect x="788" y="266" width="29" height="29" transform="rotate(0,802.5,280.5)"></rect><rect x="788" y="411" width="29" height="29" transform="rotate(0,802.5,425.5)"></rect><rect x="788" y="469" width="29" height="29" transform="rotate(0,802.5,483.5)"></rect><rect x="788" y="498" width="29" height="29" transform="rotate(0,802.5,512.5)"></rect><rect x="788" y="556" width="29" height="29" transform="rotate(0,802.5,570.5)"></rect><rect x="788" y="585" width="29" height="29" transform="rotate(0,802.5,599.5)"></rect><rect x="788" y="614" width="29" height="29" transform="rotate(0,802.5,628.5)"></rect><rect x="788" y="672" width="29" height="29" transform="rotate(0,802.5,686.5)"></rect><rect x="788" y="759" width="29" height="29" transform="rotate(0,802.5,773.5)"></rect><rect x="788" y="846" width="29" height="29" transform="rotate(0,802.5,860.5)"></rect><rect x="788" y="904" width="29" height="29" transform="rotate(0,802.5,918.5)"></rect><rect x="788" y="933" width="29" height="29" transform="rotate(0,802.5,947.5)"></rect><rect x="788" y="991" width="29" height="29" transform="rotate(0,802.5,1005.5)"></rect><rect x="788" y="1049" width="29" height="29" transform="rotate(0,802.5,1063.5)"></rect><rect x="788" y="1078" width="29" height="29" transform="rotate(0,802.5,1092.5)"></rect><rect x="788" y="1165" width="29" height="29" transform="rotate(0,802.5,1179.5)"></rect><rect x="817" y="5" width="29" height="29" transform="rotate(0,831.5,19.5)"></rect><rect x="817" y="121" width="29" height="29" transform="rotate(0,831.5,135.5)"></rect><rect x="817" y="179" width="29" height="29" transform="rotate(0,831.5,193.5)"></rect><rect x="817" y="237" width="29" height="29" transform="rotate(0,831.5,251.5)"></rect><rect x="817" y="353" width="29" height="29" transform="rotate(0,831.5,367.5)"></rect><rect x="817" y="411" width="29" height="29" transform="rotate(0,831.5,425.5)"></rect><rect x="817" y="440" width="29" height="29" transform="rotate(0,831.5,454.5)"></rect><rect x="817" y="556" width="29" height="29" transform="rotate(0,831.5,570.5)"></rect><rect x="817" y="585" width="29" height="29" transform="rotate(0,831.5,599.5)"></rect><rect x="817" y="701" width="29" height="29" transform="rotate(0,831.5,715.5)"></rect><rect x="817" y="730" width="29" height="29" transform="rotate(0,831.5,744.5)"></rect><rect x="817" y="759" width="29" height="29" transform="rotate(0,831.5,773.5)"></rect><rect x="817" y="817" width="29" height="29" transform="rotate(0,831.5,831.5)"></rect><rect x="817" y="846" width="29" height="29" transform="rotate(0,831.5,860.5)"></rect><rect x="817" y="933" width="29" height="29" transform="rotate(0,831.5,947.5)"></rect><rect x="817" y="962" width="29" height="29" transform="rotate(0,831.5,976.5)"></rect><rect x="846" y="5" width="29" height="29" transform="rotate(0,860.5,19.5)"></rect><rect x="846" y="63" width="29" height="29" transform="rotate(0,860.5,77.5)"></rect><rect x="846" y="121" width="29" height="29" transform="rotate(0,860.5,135.5)"></rect><rect x="846" y="150" width="29" height="29" transform="rotate(0,860.5,164.5)"></rect><rect x="846" y="208" width="29" height="29" transform="rotate(0,860.5,222.5)"></rect><rect x="846" y="237" width="29" height="29" transform="rotate(0,860.5,251.5)"></rect><rect x="846" y="266" width="29" height="29" transform="rotate(0,860.5,280.5)"></rect><rect x="846" y="295" width="29" height="29" transform="rotate(0,860.5,309.5)"></rect><rect x="846" y="324" width="29" height="29" transform="rotate(0,860.5,338.5)"></rect><rect x="846" y="353" width="29" height="29" transform="rotate(0,860.5,367.5)"></rect><rect x="846" y="469" width="29" height="29" transform="rotate(0,860.5,483.5)"></rect><rect x="846" y="498" width="29" height="29" transform="rotate(0,860.5,512.5)"></rect><rect x="846" y="556" width="29" height="29" transform="rotate(0,860.5,570.5)"></rect><rect x="846" y="585" width="29" height="29" transform="rotate(0,860.5,599.5)"></rect><rect x="846" y="614" width="29" height="29" transform="rotate(0,860.5,628.5)"></rect><rect x="846" y="701" width="29" height="29" transform="rotate(0,860.5,715.5)"></rect><rect x="846" y="730" width="29" height="29" transform="rotate(0,860.5,744.5)"></rect><rect x="846" y="875" width="29" height="29" transform="rotate(0,860.5,889.5)"></rect><rect x="846" y="991" width="29" height="29" transform="rotate(0,860.5,1005.5)"></rect><rect x="846" y="1020" width="29" height="29" transform="rotate(0,860.5,1034.5)"></rect><rect x="846" y="1049" width="29" height="29" transform="rotate(0,860.5,1063.5)"></rect><rect x="846" y="1165" width="29" height="29" transform="rotate(0,860.5,1179.5)"></rect><rect x="875" y="63" width="29" height="29" transform="rotate(0,889.5,77.5)"></rect><rect x="875" y="92" width="29" height="29" transform="rotate(0,889.5,106.5)"></rect><rect x="875" y="121" width="29" height="29" transform="rotate(0,889.5,135.5)"></rect><rect x="875" y="179" width="29" height="29" transform="rotate(0,889.5,193.5)"></rect><rect x="875" y="208" width="29" height="29" transform="rotate(0,889.5,222.5)"></rect><rect x="875" y="266" width="29" height="29" transform="rotate(0,889.5,280.5)"></rect><rect x="875" y="353" width="29" height="29" transform="rotate(0,889.5,367.5)"></rect><rect x="875" y="411" width="29" height="29" transform="rotate(0,889.5,425.5)"></rect><rect x="875" y="440" width="29" height="29" transform="rotate(0,889.5,454.5)"></rect><rect x="875" y="469" width="29" height="29" transform="rotate(0,889.5,483.5)"></rect><rect x="875" y="527" width="29" height="29" transform="rotate(0,889.5,541.5)"></rect><rect x="875" y="614" width="29" height="29" transform="rotate(0,889.5,628.5)"></rect><rect x="875" y="643" width="29" height="29" transform="rotate(0,889.5,657.5)"></rect><rect x="875" y="672" width="29" height="29" transform="rotate(0,889.5,686.5)"></rect><rect x="875" y="759" width="29" height="29" transform="rotate(0,889.5,773.5)"></rect><rect x="875" y="788" width="29" height="29" transform="rotate(0,889.5,802.5)"></rect><rect x="875" y="846" width="29" height="29" transform="rotate(0,889.5,860.5)"></rect><rect x="875" y="962" width="29" height="29" transform="rotate(0,889.5,976.5)"></rect><rect x="875" y="1165" width="29" height="29" transform="rotate(0,889.5,1179.5)"></rect><rect x="904" y="121" width="29" height="29" transform="rotate(0,918.5,135.5)"></rect><rect x="904" y="266" width="29" height="29" transform="rotate(0,918.5,280.5)"></rect><rect x="904" y="295" width="29" height="29" transform="rotate(0,918.5,309.5)"></rect><rect x="904" y="353" width="29" height="29" transform="rotate(0,918.5,367.5)"></rect><rect x="904" y="469" width="29" height="29" transform="rotate(0,918.5,483.5)"></rect><rect x="904" y="498" width="29" height="29" transform="rotate(0,918.5,512.5)"></rect><rect x="904" y="585" width="29" height="29" transform="rotate(0,918.5,599.5)"></rect><rect x="904" y="614" width="29" height="29" transform="rotate(0,918.5,628.5)"></rect><rect x="904" y="730" width="29" height="29" transform="rotate(0,918.5,744.5)"></rect><rect x="904" y="788" width="29" height="29" transform="rotate(0,918.5,802.5)"></rect><rect x="904" y="817" width="29" height="29" transform="rotate(0,918.5,831.5)"></rect><rect x="904" y="846" width="29" height="29" transform="rotate(0,918.5,860.5)"></rect><rect x="904" y="875" width="29" height="29" transform="rotate(0,918.5,889.5)"></rect><rect x="904" y="933" width="29" height="29" transform="rotate(0,918.5,947.5)"></rect><rect x="904" y="962" width="29" height="29" transform="rotate(0,918.5,976.5)"></rect><rect x="904" y="1020" width="29" height="29" transform="rotate(0,918.5,1034.5)"></rect><rect x="904" y="1078" width="29" height="29" transform="rotate(0,918.5,1092.5)"></rect><rect x="904" y="1136" width="29" height="29" transform="rotate(0,918.5,1150.5)"></rect><rect x="904" y="1165" width="29" height="29" transform="rotate(0,918.5,1179.5)"></rect><rect x="933" y="5" width="29" height="29" transform="rotate(0,947.5,19.5)"></rect><rect x="933" y="34" width="29" height="29" transform="rotate(0,947.5,48.5)"></rect><rect x="933" y="63" width="29" height="29" transform="rotate(0,947.5,77.5)"></rect><rect x="933" y="150" width="29" height="29" transform="rotate(0,947.5,164.5)"></rect><rect x="933" y="179" width="29" height="29" transform="rotate(0,947.5,193.5)"></rect><rect x="933" y="266" width="29" height="29" transform="rotate(0,947.5,280.5)"></rect><rect x="933" y="353" width="29" height="29" transform="rotate(0,947.5,367.5)"></rect><rect x="933" y="411" width="29" height="29" transform="rotate(0,947.5,425.5)"></rect><rect x="933" y="440" width="29" height="29" transform="rotate(0,947.5,454.5)"></rect><rect x="933" y="469" width="29" height="29" transform="rotate(0,947.5,483.5)"></rect><rect x="933" y="556" width="29" height="29" transform="rotate(0,947.5,570.5)"></rect><rect x="933" y="643" width="29" height="29" transform="rotate(0,947.5,657.5)"></rect><rect x="933" y="672" width="29" height="29" transform="rotate(0,947.5,686.5)"></rect><rect x="933" y="701" width="29" height="29" transform="rotate(0,947.5,715.5)"></rect><rect x="933" y="730" width="29" height="29" transform="rotate(0,947.5,744.5)"></rect><rect x="933" y="846" width="29" height="29" transform="rotate(0,947.5,860.5)"></rect><rect x="933" y="933" width="29" height="29" transform="rotate(0,947.5,947.5)"></rect><rect x="933" y="962" width="29" height="29" transform="rotate(0,947.5,976.5)"></rect><rect x="933" y="991" width="29" height="29" transform="rotate(0,947.5,1005.5)"></rect><rect x="933" y="1020" width="29" height="29" transform="rotate(0,947.5,1034.5)"></rect><rect x="933" y="1049" width="29" height="29" transform="rotate(0,947.5,1063.5)"></rect><rect x="933" y="1078" width="29" height="29" transform="rotate(0,947.5,1092.5)"></rect><rect x="933" y="1136" width="29" height="29" transform="rotate(0,947.5,1150.5)"></rect><rect x="933" y="1165" width="29" height="29" transform="rotate(0,947.5,1179.5)"></rect><rect x="962" y="237" width="29" height="29" transform="rotate(0,976.5,251.5)"></rect><rect x="962" y="295" width="29" height="29" transform="rotate(0,976.5,309.5)"></rect><rect x="962" y="382" width="29" height="29" transform="rotate(0,976.5,396.5)"></rect><rect x="962" y="440" width="29" height="29" transform="rotate(0,976.5,454.5)"></rect><rect x="962" y="469" width="29" height="29" transform="rotate(0,976.5,483.5)"></rect><rect x="962" y="585" width="29" height="29" transform="rotate(0,976.5,599.5)"></rect><rect x="962" y="730" width="29" height="29" transform="rotate(0,976.5,744.5)"></rect><rect x="962" y="788" width="29" height="29" transform="rotate(0,976.5,802.5)"></rect><rect x="962" y="817" width="29" height="29" transform="rotate(0,976.5,831.5)"></rect><rect x="962" y="846" width="29" height="29" transform="rotate(0,976.5,860.5)"></rect><rect x="962" y="875" width="29" height="29" transform="rotate(0,976.5,889.5)"></rect><rect x="962" y="904" width="29" height="29" transform="rotate(0,976.5,918.5)"></rect><rect x="962" y="933" width="29" height="29" transform="rotate(0,976.5,947.5)"></rect><rect x="962" y="1049" width="29" height="29" transform="rotate(0,976.5,1063.5)"></rect><rect x="962" y="1078" width="29" height="29" transform="rotate(0,976.5,1092.5)"></rect><rect x="962" y="1107" width="29" height="29" transform="rotate(0,976.5,1121.5)"></rect><rect x="962" y="1165" width="29" height="29" transform="rotate(0,976.5,1179.5)"></rect><rect x="991" y="237" width="29" height="29" transform="rotate(0,1005.5,251.5)"></rect><rect x="991" y="469" width="29" height="29" transform="rotate(0,1005.5,483.5)"></rect><rect x="991" y="498" width="29" height="29" transform="rotate(0,1005.5,512.5)"></rect><rect x="991" y="527" width="29" height="29" transform="rotate(0,1005.5,541.5)"></rect><rect x="991" y="556" width="29" height="29" transform="rotate(0,1005.5,570.5)"></rect><rect x="991" y="614" width="29" height="29" transform="rotate(0,1005.5,628.5)"></rect><rect x="991" y="643" width="29" height="29" transform="rotate(0,1005.5,657.5)"></rect><rect x="991" y="730" width="29" height="29" transform="rotate(0,1005.5,744.5)"></rect><rect x="991" y="759" width="29" height="29" transform="rotate(0,1005.5,773.5)"></rect><rect x="991" y="788" width="29" height="29" transform="rotate(0,1005.5,802.5)"></rect><rect x="991" y="817" width="29" height="29" transform="rotate(0,1005.5,831.5)"></rect><rect x="991" y="875" width="29" height="29" transform="rotate(0,1005.5,889.5)"></rect><rect x="991" y="904" width="29" height="29" transform="rotate(0,1005.5,918.5)"></rect><rect x="991" y="933" width="29" height="29" transform="rotate(0,1005.5,947.5)"></rect><rect x="991" y="991" width="29" height="29" transform="rotate(0,1005.5,1005.5)"></rect><rect x="991" y="1049" width="29" height="29" transform="rotate(0,1005.5,1063.5)"></rect><rect x="991" y="1078" width="29" height="29" transform="rotate(0,1005.5,1092.5)"></rect><rect x="991" y="1165" width="29" height="29" transform="rotate(0,1005.5,1179.5)"></rect><rect x="1020" y="237" width="29" height="29" transform="rotate(0,1034.5,251.5)"></rect><rect x="1020" y="266" width="29" height="29" transform="rotate(0,1034.5,280.5)"></rect><rect x="1020" y="324" width="29" height="29" transform="rotate(0,1034.5,338.5)"></rect><rect x="1020" y="440" width="29" height="29" transform="rotate(0,1034.5,454.5)"></rect><rect x="1020" y="469" width="29" height="29" transform="rotate(0,1034.5,483.5)"></rect><rect x="1020" y="498" width="29" height="29" transform="rotate(0,1034.5,512.5)"></rect><rect x="1020" y="527" width="29" height="29" transform="rotate(0,1034.5,541.5)"></rect><rect x="1020" y="556" width="29" height="29" transform="rotate(0,1034.5,570.5)"></rect><rect x="1020" y="672" width="29" height="29" transform="rotate(0,1034.5,686.5)"></rect><rect x="1020" y="759" width="29" height="29" transform="rotate(0,1034.5,773.5)"></rect><rect x="1020" y="788" width="29" height="29" transform="rotate(0,1034.5,802.5)"></rect><rect x="1020" y="904" width="29" height="29" transform="rotate(0,1034.5,918.5)"></rect><rect x="1020" y="933" width="29" height="29" transform="rotate(0,1034.5,947.5)"></rect><rect x="1020" y="1049" width="29" height="29" transform="rotate(0,1034.5,1063.5)"></rect><rect x="1020" y="1078" width="29" height="29" transform="rotate(0,1034.5,1092.5)"></rect><rect x="1020" y="1136" width="29" height="29" transform="rotate(0,1034.5,1150.5)"></rect><rect x="1049" y="237" width="29" height="29" transform="rotate(0,1063.5,251.5)"></rect><rect x="1049" y="295" width="29" height="29" transform="rotate(0,1063.5,309.5)"></rect><rect x="1049" y="324" width="29" height="29" transform="rotate(0,1063.5,338.5)"></rect><rect x="1049" y="411" width="29" height="29" transform="rotate(0,1063.5,425.5)"></rect><rect x="1049" y="440" width="29" height="29" transform="rotate(0,1063.5,454.5)"></rect><rect x="1049" y="527" width="29" height="29" transform="rotate(0,1063.5,541.5)"></rect><rect x="1049" y="556" width="29" height="29" transform="rotate(0,1063.5,570.5)"></rect><rect x="1049" y="585" width="29" height="29" transform="rotate(0,1063.5,599.5)"></rect><rect x="1049" y="643" width="29" height="29" transform="rotate(0,1063.5,657.5)"></rect><rect x="1049" y="672" width="29" height="29" transform="rotate(0,1063.5,686.5)"></rect><rect x="1049" y="730" width="29" height="29" transform="rotate(0,1063.5,744.5)"></rect><rect x="1049" y="788" width="29" height="29" transform="rotate(0,1063.5,802.5)"></rect><rect x="1049" y="904" width="29" height="29" transform="rotate(0,1063.5,918.5)"></rect><rect x="1049" y="933" width="29" height="29" transform="rotate(0,1063.5,947.5)"></rect><rect x="1049" y="962" width="29" height="29" transform="rotate(0,1063.5,976.5)"></rect><rect x="1049" y="991" width="29" height="29" transform="rotate(0,1063.5,1005.5)"></rect><rect x="1049" y="1020" width="29" height="29" transform="rotate(0,1063.5,1034.5)"></rect><rect x="1049" y="1049" width="29" height="29" transform="rotate(0,1063.5,1063.5)"></rect><rect x="1049" y="1078" width="29" height="29" transform="rotate(0,1063.5,1092.5)"></rect><rect x="1049" y="1136" width="29" height="29" transform="rotate(0,1063.5,1150.5)"></rect><rect x="1049" y="1165" width="29" height="29" transform="rotate(0,1063.5,1179.5)"></rect><rect x="1078" y="266" width="29" height="29" transform="rotate(0,1092.5,280.5)"></rect><rect x="1078" y="295" width="29" height="29" transform="rotate(0,1092.5,309.5)"></rect><rect x="1078" y="324" width="29" height="29" transform="rotate(0,1092.5,338.5)"></rect><rect x="1078" y="353" width="29" height="29" transform="rotate(0,1092.5,367.5)"></rect><rect x="1078" y="440" width="29" height="29" transform="rotate(0,1092.5,454.5)"></rect><rect x="1078" y="469" width="29" height="29" transform="rotate(0,1092.5,483.5)"></rect><rect x="1078" y="527" width="29" height="29" transform="rotate(0,1092.5,541.5)"></rect><rect x="1078" y="585" width="29" height="29" transform="rotate(0,1092.5,599.5)"></rect><rect x="1078" y="614" width="29" height="29" transform="rotate(0,1092.5,628.5)"></rect><rect x="1078" y="672" width="29" height="29" transform="rotate(0,1092.5,686.5)"></rect><rect x="1078" y="730" width="29" height="29" transform="rotate(0,1092.5,744.5)"></rect><rect x="1078" y="788" width="29" height="29" transform="rotate(0,1092.5,802.5)"></rect><rect x="1078" y="817" width="29" height="29" transform="rotate(0,1092.5,831.5)"></rect><rect x="1078" y="846" width="29" height="29" transform="rotate(0,1092.5,860.5)"></rect><rect x="1078" y="875" width="29" height="29" transform="rotate(0,1092.5,889.5)"></rect><rect x="1078" y="933" width="29" height="29" transform="rotate(0,1092.5,947.5)"></rect><rect x="1078" y="1020" width="29" height="29" transform="rotate(0,1092.5,1034.5)"></rect><rect x="1078" y="1136" width="29" height="29" transform="rotate(0,1092.5,1150.5)"></rect><rect x="1078" y="1165" width="29" height="29" transform="rotate(0,1092.5,1179.5)"></rect><rect x="1107" y="266" width="29" height="29" transform="rotate(0,1121.5,280.5)"></rect><rect x="1107" y="295" width="29" height="29" transform="rotate(0,1121.5,309.5)"></rect><rect x="1107" y="353" width="29" height="29" transform="rotate(0,1121.5,367.5)"></rect><rect x="1107" y="440" width="29" height="29" transform="rotate(0,1121.5,454.5)"></rect><rect x="1107" y="498" width="29" height="29" transform="rotate(0,1121.5,512.5)"></rect><rect x="1107" y="527" width="29" height="29" transform="rotate(0,1121.5,541.5)"></rect><rect x="1107" y="585" width="29" height="29" transform="rotate(0,1121.5,599.5)"></rect><rect x="1107" y="614" width="29" height="29" transform="rotate(0,1121.5,628.5)"></rect><rect x="1107" y="643" width="29" height="29" transform="rotate(0,1121.5,657.5)"></rect><rect x="1107" y="788" width="29" height="29" transform="rotate(0,1121.5,802.5)"></rect><rect x="1107" y="962" width="29" height="29" transform="rotate(0,1121.5,976.5)"></rect><rect x="1107" y="1136" width="29" height="29" transform="rotate(0,1121.5,1150.5)"></rect><rect x="1107" y="1165" width="29" height="29" transform="rotate(0,1121.5,1179.5)"></rect><rect x="1136" y="266" width="29" height="29" transform="rotate(0,1150.5,280.5)"></rect><rect x="1136" y="324" width="29" height="29" transform="rotate(0,1150.5,338.5)"></rect><rect x="1136" y="469" width="29" height="29" transform="rotate(0,1150.5,483.5)"></rect><rect x="1136" y="498" width="29" height="29" transform="rotate(0,1150.5,512.5)"></rect><rect x="1136" y="527" width="29" height="29" transform="rotate(0,1150.5,541.5)"></rect><rect x="1136" y="556" width="29" height="29" transform="rotate(0,1150.5,570.5)"></rect><rect x="1136" y="585" width="29" height="29" transform="rotate(0,1150.5,599.5)"></rect><rect x="1136" y="614" width="29" height="29" transform="rotate(0,1150.5,628.5)"></rect><rect x="1136" y="672" width="29" height="29" transform="rotate(0,1150.5,686.5)"></rect><rect x="1136" y="730" width="29" height="29" transform="rotate(0,1150.5,744.5)"></rect><rect x="1136" y="759" width="29" height="29" transform="rotate(0,1150.5,773.5)"></rect><rect x="1136" y="788" width="29" height="29" transform="rotate(0,1150.5,802.5)"></rect><rect x="1136" y="817" width="29" height="29" transform="rotate(0,1150.5,831.5)"></rect><rect x="1136" y="846" width="29" height="29" transform="rotate(0,1150.5,860.5)"></rect><rect x="1136" y="933" width="29" height="29" transform="rotate(0,1150.5,947.5)"></rect><rect x="1136" y="1020" width="29" height="29" transform="rotate(0,1150.5,1034.5)"></rect><rect x="1136" y="1078" width="29" height="29" transform="rotate(0,1150.5,1092.5)"></rect><rect x="1136" y="1136" width="29" height="29" transform="rotate(0,1150.5,1150.5)"></rect><rect x="1136" y="1165" width="29" height="29" transform="rotate(0,1150.5,1179.5)"></rect><rect x="1165" y="295" width="29" height="29" transform="rotate(0,1179.5,309.5)"></rect><rect x="1165" y="353" width="29" height="29" transform="rotate(0,1179.5,367.5)"></rect><rect x="1165" y="382" width="29" height="29" transform="rotate(0,1179.5,396.5)"></rect><rect x="1165" y="411" width="29" height="29" transform="rotate(0,1179.5,425.5)"></rect><rect x="1165" y="440" width="29" height="29" transform="rotate(0,1179.5,454.5)"></rect><rect x="1165" y="556" width="29" height="29" transform="rotate(0,1179.5,570.5)"></rect><rect x="1165" y="643" width="29" height="29" transform="rotate(0,1179.5,657.5)"></rect><rect x="1165" y="730" width="29" height="29" transform="rotate(0,1179.5,744.5)"></rect><rect x="1165" y="759" width="29" height="29" transform="rotate(0,1179.5,773.5)"></rect><rect x="1165" y="817" width="29" height="29" transform="rotate(0,1179.5,831.5)"></rect><rect x="1165" y="846" width="29" height="29" transform="rotate(0,1179.5,860.5)"></rect><rect x="1165" y="933" width="29" height="29" transform="rotate(0,1179.5,947.5)"></rect><rect x="1165" y="1020" width="29" height="29" transform="rotate(0,1179.5,1034.5)"></rect><rect x="1165" y="1049" width="29" height="29" transform="rotate(0,1179.5,1063.5)"></rect><rect x="1165" y="1078" width="29" height="29" transform="rotate(0,1179.5,1092.5)"></rect><rect x="1165" y="1136" width="29" height="29" transform="rotate(0,1179.5,1150.5)"></rect></clipPath><clipPath id="clip-path-corners-square-color-0-0"><path clip-rule="evenodd" d="M 5 77.5v 58a 72.5 72.5, 0, 0, 0, 72.5 72.5h 58a 72.5 72.5, 0, 0, 0, 72.5 -72.5v -58a 72.5 72.5, 0, 0, 0, -72.5 -72.5h -58a 72.5 72.5, 0, 0, 0, -72.5 72.5M 77.5 34h 58a 43.5 43.5, 0, 0, 1, 43.5 43.5v 58a 43.5 43.5, 0, 0, 1, -43.5 43.5h -58a 43.5 43.5, 0, 0, 1, -43.5 -43.5v -58a 43.5 43.5, 0, 0, 1, 43.5 -43.5" transform="rotate(0,106.5,106.5)"></path><rect x="63" y="63" width="87" height="87" transform="rotate(0,106.5,106.5)"></rect></clipPath><clipPath id="clip-path-corners-square-color-1-0"><path clip-rule="evenodd" d="M 991 77.5v 58a 72.5 72.5, 0, 0, 0, 72.5 72.5h 58a 72.5 72.5, 0, 0, 0, 72.5 -72.5v -58a 72.5 72.5, 0, 0, 0, -72.5 -72.5h -58a 72.5 72.5, 0, 0, 0, -72.5 72.5M 1063.5 34h 58a 43.5 43.5, 0, 0, 1, 43.5 43.5v 58a 43.5 43.5, 0, 0, 1, -43.5 43.5h -58a 43.5 43.5, 0, 0, 1, -43.5 -43.5v -58a 43.5 43.5, 0, 0, 1, 43.5 -43.5" transform="rotate(90,1092.5,106.5)"></path><rect x="1049" y="63" width="87" height="87" transform="rotate(90,1092.5,106.5)"></rect></clipPath><clipPath id="clip-path-corners-square-color-0-1"><path clip-rule="evenodd" d="M 5 1063.5v 58a 72.5 72.5, 0, 0, 0, 72.5 72.5h 58a 72.5 72.5, 0, 0, 0, 72.5 -72.5v -58a 72.5 72.5, 0, 0, 0, -72.5 -72.5h -58a 72.5 72.5, 0, 0, 0, -72.5 72.5M 77.5 1020h 58a 43.5 43.5, 0, 0, 1, 43.5 43.5v 58a 43.5 43.5, 0, 0, 1, -43.5 43.5h -58a 43.5 43.5, 0, 0, 1, -43.5 -43.5v -58a 43.5 43.5, 0, 0, 1, 43.5 -43.5" transform="rotate(-90,106.5,1092.5)"></path><rect x="63" y="1049" width="87" height="87" transform="rotate(-90,106.5,1092.5)"></rect></clipPath></defs><rect x="0" y="0" height="1200" width="1200" clip-path="url('#clip-path-background-color')" fill="#ffffff"></rect><rect x="0" y="0" height="1200" width="1200" clip-path="url('#clip-path-dot-color')" fill="#393a3c"></rect><rect x="5" y="5" height="203" width="203" clip-path="url('#clip-path-corners-square-color-0-0')" fill="#404b96"></rect><rect x="991" y="5" height="203" width="203" clip-path="url('#clip-path-corners-square-color-1-0')" fill="#404b96"></rect><rect x="5" y="991" height="203" width="203" clip-path="url('#clip-path-corners-square-color-0-1')" fill="#404b96"></rect></svg>